<svg xmlns="http://www.w3.org/2000/svg" width="15.969" height="15.969" viewBox="0 0 15.969 15.969">
  <defs>
    <style>
      .cls-1 {
        fill: #fff;
        fill-rule: evenodd;
      }
    </style>
  </defs>
  <path id="gear.svg" class="cls-1" d="M89.38,720.248H88.533a6.045,6.045,0,0,1-.588,1.408l0.783,0.783a1.282,1.282,0,0,1,0,1.813l-0.453.454a1.282,1.282,0,0,1-1.814,0l-0.788-.788a6.029,6.029,0,0,1-1.4.578v0.821a1.283,1.283,0,0,1-1.282,1.283H82.346a1.283,1.283,0,0,1-1.282-1.283V724.5a6.032,6.032,0,0,1-1.4-.578l-0.787.788a1.282,1.282,0,0,1-1.814,0l-0.453-.454a1.282,1.282,0,0,1,0-1.813l0.783-.783a6.04,6.04,0,0,1-.587-1.408H75.954a1.282,1.282,0,0,1-1.282-1.283v-0.641a1.282,1.282,0,0,1,1.282-1.282h0.836a6.046,6.046,0,0,1,.567-1.4l-0.752-.752a1.283,1.283,0,0,1,0-1.814l0.453-.453a1.282,1.282,0,0,1,1.814,0l0.738,0.737a6.1,6.1,0,0,1,1.453-.608v-0.861a1.282,1.282,0,0,1,1.282-1.282h0.641a1.282,1.282,0,0,1,1.282,1.282v0.861a6.094,6.094,0,0,1,1.453.608l0.738-.737a1.282,1.282,0,0,1,1.814,0l0.453,0.453a1.283,1.283,0,0,1,0,1.814l-0.752.752a6.051,6.051,0,0,1,.568,1.4H89.38a1.282,1.282,0,0,1,1.282,1.282v0.641A1.282,1.282,0,0,1,89.38,720.248Zm-6.713-5.11a3.527,3.527,0,1,0,3.527,3.527A3.527,3.527,0,0,0,82.667,715.138Zm0,5.09a1.6,1.6,0,1,1,1.6-1.6A1.6,1.6,0,0,1,82.667,720.228Z" transform="translate(-74.688 -710.625)"/>
</svg>
