<svg xmlns="http://www.w3.org/2000/svg" width="16" height="16" viewBox="0 0 16 16">
  <defs>
    <style>
      .cls-1 {
        fill: #fff;
        fill-rule: evenodd;
      }
    </style>
  </defs>
  <path id="dribbble.svg" class="cls-1" d="M942.833,25.611a8,8,0,0,1-.465,1.5,8.1,8.1,0,0,1-.737,1.36,8.2,8.2,0,0,1-.977,1.182,8.007,8.007,0,0,1-7.264,2.179,7.924,7.924,0,0,1-2.862-1.2,8.005,8.005,0,0,1-2.9-3.517,8.025,8.025,0,0,1,0-6.225,7.993,7.993,0,0,1,13.022-2.541,7.959,7.959,0,0,1,1.714,2.541A8.032,8.032,0,0,1,942.833,25.611Zm-4.044,3.9a6.689,6.689,0,0,0,2.378-2.91,6.574,6.574,0,0,0,.39-1.257c0.021-.1.031-0.2,0.047-0.307-0.056-.016-0.131-0.036-0.216-0.058l-0.04-.01c-0.193-.048-0.448-0.1-0.754-0.155h0a9.823,9.823,0,0,0-3.106-.027A30.237,30.237,0,0,1,938.789,29.515Zm-6.394.652a6.712,6.712,0,0,0,1.256.39,6.768,6.768,0,0,0,2.7,0,6.676,6.676,0,0,0,1.257-.39l0.037-.018a28.752,28.752,0,0,0-1.436-5.045l-0.043.013a11.474,11.474,0,0,0-1.135.469c-0.05.024-.1,0.046-0.152,0.07-0.328.161-.632,0.331-0.914,0.506-0.053.033-.106,0.065-0.157,0.1-0.272.175-.527,0.354-0.757,0.534-0.037.028-.07,0.057-0.105,0.085-0.234.188-.452,0.375-0.642,0.559h0c-0.194.187-.363,0.368-0.516,0.542l-0.065.073c-0.139.162-.26,0.315-0.365,0.456l-0.058.078c-0.1.134-.182,0.259-0.248,0.364-0.012.018-.021,0.034-0.031,0.05-0.063.1-.116,0.192-0.15,0.255h0c0.128,0.1.256,0.2,0.391,0.293A6.755,6.755,0,0,0,932.4,30.167Zm-4.077-6.382c0,0.072-.011.143-0.011,0.215a6.813,6.813,0,0,0,.135,1.348,6.648,6.648,0,0,0,.391,1.257,5.616,5.616,0,0,0,1.173,1.81h0c0.045-.072.113-0.175,0.194-0.291l0.039-.058c0.084-.121.187-0.26,0.3-0.412l0.069-.088c0.126-.159.266-0.329,0.426-0.509l0.074-.081c0.173-.192.36-0.391,0.572-0.595h0c0.206-.2.436-0.4,0.679-0.6,0.037-.03.071-0.06,0.109-0.091q0.357-.285.766-0.553l0.154-.1a9.584,9.584,0,0,1,.885-0.5c0.047-.023.1-0.044,0.144-0.066a8.843,8.843,0,0,1,1.053-.424c0.086-.028.175-0.049,0.263-0.074-0.173-.391-0.355-0.783-0.552-1.169a25.182,25.182,0,0,1-6.506.974h0C928.525,23.785,928.4,23.786,928.318,23.785Zm3.854-5.845a6.674,6.674,0,0,0-3.339,3.455,6.628,6.628,0,0,0-.376,1.2c0.072,0,.17,0,0.291,0h0.008c0.246-.005.586-0.017,1-0.045h0a26.3,26.3,0,0,0,4.232-.629h0c0.207-.049.417-0.1,0.628-0.157A41.613,41.613,0,0,0,932.172,17.94Zm6.57,0.509a6.716,6.716,0,0,0-5.091-1.007c-0.057.012-.112,0.03-0.169,0.043a35.024,35.024,0,0,1,2.455,3.851h0c0.267-.1.517-0.206,0.75-0.315l0.014-.007A7.462,7.462,0,0,0,939.413,19,6.808,6.808,0,0,0,938.742,18.45Zm2.815,4.2a6.592,6.592,0,0,0-.39-1.256,6.786,6.786,0,0,0-.617-1.137c-0.111-.165-0.254-0.306-0.38-0.461a8.857,8.857,0,0,1-2.885,2.184l-0.054.027c-0.241.12-.494,0.235-0.767,0.347,0.161,0.329.316,0.663,0.46,1,0.051,0.12.094,0.236,0.142,0.355,0.244-.031.485-0.051,0.725-0.066l0.121-.006q0.307-.016.6-0.019h0.1c0.227,0,.449,0,0.663.013l0.047,0c0.194,0.009.379,0.021,0.557,0.035l0.127,0.01c0.174,0.015.341,0.031,0.5,0.049l0.031,0c0.166,0.019.316,0.04,0.455,0.059l0.1,0.015,0.282,0.045,0.07,0.012,0.242,0.044h0A6.825,6.825,0,0,0,941.557,22.651Z" transform="translate(-927 -16)"/>
</svg>
