<svg xmlns="http://www.w3.org/2000/svg" width="18.281" height="15.969" viewBox="0 0 18.281 15.969">
  <defs>
    <style>
      .cls-1 {
        fill: #fff;
        fill-rule: evenodd;
      }
    </style>
  </defs>
  <path id="man.svg" class="cls-1" d="M390.389,717.862c-0.483,1.23-1.572,2.217-1.572,2.931a3.686,3.686,0,0,0,1.119,1.76s6.335,2.159,6.335,3.123v1.308l-18.272,0v-1.31c0-.928,6.431-3.157,6.431-3.157a3.957,3.957,0,0,0,.976-1.719c0-.647-1.08-1.7-1.567-2.933a10.855,10.855,0,0,1-.2-4.411,3.488,3.488,0,0,1,3.47-2.436,3.718,3.718,0,0,1,3.47,2.43A12.014,12.014,0,0,1,390.389,717.862Z" transform="translate(-378 -711.031)"/>
</svg>
