<svg xmlns="http://www.w3.org/2000/svg" width="25.437" height="14.25" viewBox="0 0 25.437 14.25">
  <defs>
    <style>
      .cls-1 {
        fill: #fff;
        fill-rule: evenodd;
      }
    </style>
  </defs>
  <path id="twitter.svg" class="cls-1" d="M881.776,19.63a13.318,13.318,0,0,0-1.982-2.7,2.507,2.507,0,0,0-3.327.16,16.7,16.7,0,0,0-1.759,1.514l-5.162-2.855v0.276l1.483,1.468-1.657-.654,1.076,1.221-1.265-.495,0.164,0.321a14.163,14.163,0,0,0-2.374-1.559,17.786,17.786,0,0,0,1.18,1.623l-1.437-.807,0.86,1.323-1.215-.675,3.878,4.108s-6.91,5.483-12.257-.124c0,0,8.636,10.268,15.758,7.855a13.927,13.927,0,0,0,7.548-7.855,2.738,2.738,0,0,1,.989-0.751,7.843,7.843,0,0,0,1.12-.556Zm-2.3.908a1.078,1.078,0,0,1-.876-1.2,0.92,0.92,0,1,1,1.753,0A1.077,1.077,0,0,1,879.474,20.538Z" transform="translate(-857.969 -15.75)"/>
</svg>
